<svg viewBox="0 0 120 120" xmlns="http://www.w3.org/2000/svg"><defs><linearGradient id="b"><stop offset="0" stop-color="#aaa"/><stop offset=".2" stop-color="#666"/><stop offset=".8" stop-color="#555"/><stop offset="1" stop-color="#666"/></linearGradient><linearGradient id="a"><stop offset="0" stop-color="#9c9"/><stop offset=".1" stop-color="#696"/><stop offset=".3" stop-color="#363"/><stop offset=".8" stop-color="#252"/><stop offset="1" stop-color="#363"/></linearGradient><linearGradient id="c"><stop offset="0" stop-color="#963"/><stop offset=".8" stop-color="#963"/><stop offset="1" stop-color="#630"/></linearGradient></defs><g stroke="#000" stroke-width="2"><path d="M34 52c0 4-4 0-4 11s4 7 4 11h48c0-4 4 0 4-11s-4-7-4-11z" fill="url(#a)"/><path d="M32 42h52c8 0 8 10 0 10H32c-8 0-8-10 0-10zm0 32h52c8 0 8 10 0 10H32c-8 0-8-10 0-10z" fill="url(#b)"/><path d="M36 84v27h45V84Z" fill="#eee"/><path d="M20 10C8 10 8 28 20 28h80c12 0 12-18 0-18z" fill="#eee" stroke="#ccc"/></g><path d="M42 32h13v-4h4v4h13L57 48Z" stroke="#999"/><path d="M86 62v2h6v12h4v-2h-2V62Z" fill="#999" stroke="#000"/><path d="M96 76c16 12 16-14 0-2v2z" fill="url(#c)" stroke="#000"/><path d="M17.68 18.18h.28l.3-.01q.12-.01.31-.09.2-.07.37-.22.44-.4.58-1.17l.07-.5.07-.5q.22-1.26 1-1.87.45-.35.94-.45.5-.1 1.15-.1h.74l-.14.8h-.48l-.3-.01h-.25q-.55 0-.9.18-.62.36-.78 1.3-.03.16-.06.49l-.07.48q-.12.68-.42 1.11-.45.68-1.15.94.17.06.3.15.14.1.27.27.14.17.2.4.07.24.1.58.02.33-.07.76-.03.22-.13.6l-.13.57q-.17 1.03.33 1.43.19.15.43.19.26.04.65.04h.77l-.14.78h-.94q-.61 0-1-.08-.37-.07-.66-.33-.68-.61-.42-2.02l.16-.72.14-.67q.17-.93-.14-1.28-.1-.13-.28-.2-.17-.06-.27-.06h-.58zm17.07 3.24q.2.23.14.56-.06.33-.34.56-.28.24-.62.24-.34 0-.54-.24-.2-.23-.14-.56.07-.33.34-.56.28-.24.62-.24.34 0 .54.24zm-2.4 0q.2.23.14.56-.06.33-.34.56-.28.24-.62.24-.34 0-.54-.24-.2-.23-.14-.56.06-.33.34-.56.28-.24.62-.24.34 0 .54.24zm4.8 0q.21.23.15.56-.07.33-.35.56-.28.24-.62.24-.34 0-.54-.24-.2-.23-.14-.56.07-.33.34-.56.29-.24.63-.24t.53.24zm1.63.34.75-1 .03.04.01.03v.06q-.02.1.01.15.09.12.21.24.13.12.36.28.23.17.58.27.36.1.76.1.87 0 1.44-.27.58-.28.66-.73.07-.52-.5-.81-.23-.13-.99-.31-.76-.2-.97-.28-.61-.24-.9-.51-.47-.46-.36-1.13.13-.73.9-1.25.78-.52 1.86-.52.7 0 1.27.26.57.26.92.74l-.74.88q-.02 0-.05-.03v-.1q.02-.08 0-.12-.2-.32-.62-.6-.4-.28-1-.28-.56 0-.99.25-.43.24-.5.62-.09.48.49.77.23.12 1.21.37 1 .25 1.34.46.33.2.5.47.18.27.2.5.02.24-.02.48-.2.96-.92 1.47-.72.5-1.87.5-1.14 0-1.87-.23-.73-.25-1.2-.77zm10.29-7.19 1.13-.17v.04l-.01.03-.07.15-.07.14-.17.54-.18.67-.08.3h2.08l-.14.82h-2.1q-.33 1.16-.55 2.49l-.12.7-.06.4v.12q-.03.53.23.78.26.24.65.24.66 0 1.54-.58l.16.8q-1.08.7-2.14.7-.48 0-.83-.17-.34-.17-.5-.5-.14-.24-.17-.58-.03-.34 0-.54l.09-.61q.28-1.6.7-3.25h-1.48l.16-.82h1.51zm3.55 9.59.81-.87q.04.04.05.14l.02.12q.03.07.21.22.2.16.55.32.37.16.74.16.5 0 .8-.03.3-.04.42-.08.1-.04.3-.16.2-.11.42-.38.22-.26.25-.46l.25-1.38q-.44.44-1.04.73-.6.29-1.1.29-.64 0-1.12-.34-.47-.33-.63-.95-.07-.26-.08-.58 0-.31.03-.52l.08-.58.37-1.99q.08-.59.03-.95-.04-.37-.16-.6l1.17-.14.05.19q.03.12.04.42.03.3-.04.62l-.44 2.45-.07.47q-.03.18-.02.44.01.26.08.46.13.38.41.58.29.2.67.2.45 0 .89-.25.44-.27.74-.68.34-.48.47-1.26l.62-3.5h1l-1.19 6.81q-.06.34-.27.66-.21.34-.57.63-.35.29-.9.46-.54.19-1.2.19-.67 0-1.13-.06-.46-.04-.75-.17-.29-.11-.45-.26-.16-.14-.3-.37zm9.48-9.97.13-.8h2.8l-1.29 7.31-.03.25-.01.23q0 .14.02.23l.08.17q.04.08.14.13.1.04.23.04.17 0 .48-.03.3-.04.42-.04l-.19.95h-.64q-.85 0-1.15-.22-.59-.41-.36-1.65v-.06l1.16-6.51Zm5.73 5.33q.15-.83.5-1.5.37-.67.83-1.07.46-.4.97-.62.5-.2 1-.2.88 0 1.26.1.4.11.67.36.58.53.43 1.35-.09.51-.49.85-.4.34-1.22.62-.37.13-.86.2t-.82.08h-1.29q-.04.55.06.97.09.42.26.66.17.24.42.4.25.14.49.2.24.05.5.05.52 0 1.15-.2.63-.2.98-.53l.46.54q-.47.46-1.27.72-.8.27-1.54.27-1.34 0-2.05-.86-.7-.86-.44-2.39zm1.12-.59h.9q.86 0 1.36-.1.64-.15.93-.32.28-.17.34-.51.07-.46-.23-.78-.3-.33-.91-.33-.27 0-.55.07-.28.06-.58.22-.3.15-.55.38-.25.23-.44.58-.2.36-.27.8Zm5.81 2.83.75-1 .03.04.01.03v.06q-.02.1 0 .15l.22.24q.13.12.36.28.23.17.58.27t.76.1q.86 0 1.44-.27.57-.28.66-.73.07-.52-.5-.81-.23-.13-1-.31-.75-.2-.97-.28-.6-.24-.89-.51-.48-.46-.36-1.13.13-.73.9-1.25.78-.52 1.85-.52.7 0 1.28.26.56.26.92.74l-.74.88q-.03 0-.05-.03-.02-.04-.01-.1.02-.08 0-.12-.2-.32-.61-.6-.41-.28-1-.28-.56 0-1 .25-.43.24-.5.62-.08.48.5.77.22.12 1.2.37 1 .25 1.35.46.32.2.5.47.18.27.2.5.01.24-.02.48-.21.96-.93 1.47-.71.5-1.86.5-1.14 0-1.87-.23-.73-.25-1.2-.77zm10.36-.34q.2.23.14.56-.06.33-.35.56-.27.24-.61.24-.34 0-.55-.24-.2-.23-.13-.56.06-.33.34-.56.28-.24.62-.24.34 0 .54.24zm-2.4 0q.2.23.14.56-.07.33-.35.56-.27.24-.61.24-.34 0-.55-.24-.2-.23-.13-.56.06-.33.34-.56.28-.24.62-.24.34 0 .54.24zm4.8 0q.2.23.14.56-.06.33-.34.56-.28.24-.62.24-.34 0-.54-.24-.2-.23-.14-.56.07-.33.34-.56.28-.24.62-.24.34 0 .54.24zm14.8-3.24-.14.78h-.56q-.1.01-.3.08-.19.06-.34.2-.44.35-.6 1.27l-.08.64-.11.75q-.26 1.43-1.14 2.02-.38.26-.79.33-.4.08-1.02.08h-.92l.12-.78h.79q.39 0 .65-.04.27-.04.5-.19.65-.4.83-1.43l.07-.56.09-.61q.1-.52.27-.92.18-.4.4-.64.23-.25.44-.38.21-.14.45-.22-.62-.27-.82-.93-.15-.45-.04-1.12l.11-.49.12-.48q.15-.96-.34-1.3-.28-.19-.82-.19h-.27l-.29.01h-.48l.14-.8h.74q.65 0 1.11.11.46.1.78.45.57.62.35 1.87l-.1.5-.11.5q-.13.78.15 1.17.12.15.3.22.18.08.3.09h.3zM45 98.94q0-1.1.2-2.01.21-.92.57-1.56.37-.63.82-1.1.46-.47 1-.74.53-.27 1.03-.4.51-.13 1.02-.13 1.22 0 2.23.66 1.03.65 1.52 1.76l.1.22-1.57.77-.1-.08q-.2-.13-.2-.38v-.14l-.03-.08q-.32-.55-.86-.88-.53-.33-1.14-.33-.54 0-1.05.28-.5.27-.9.79-.4.51-.65 1.36-.24.83-.24 1.86 0 1.06.25 1.92.25.85.66 1.39.43.54.95.83.52.28 1.1.28.61 0 1.18-.34.58-.35.95-.95l.14-.2 1.36.87-.12.2q-.58.94-1.54 1.48-.95.54-2.05.54-.65 0-1.28-.19-.62-.18-1.23-.62-.62-.45-1.09-1.1-.46-.66-.75-1.69-.28-1.03-.28-2.3Zm17.33-4.39.12.14-1.03 1.4-.15-.06q-.1-.02-.2-.12-.07-.1-.07-.24l-.02-.06q-.73-1.03-2.14-1.03-.86 0-1.36.41-.48.4-.48.98 0 .86 1.05 1.44.36.2 1.11.48.76.28 1.45.61.7.33 1.17.75.99.88.99 2.17 0 .47-.15.94-.13.46-.45.91t-.78.8q-.46.34-1.16.55-.7.2-1.56.2-1.13 0-2.12-.38-.99-.4-1.7-1.17l-.1-.13.97-1.69.2.11q.22.12.22.4v.04q.4.5 1.06.84.67.35 1.5.35.57 0 1.01-.16.45-.16.72-.42.27-.27.41-.57.14-.31.14-.63 0-.83-.84-1.33-.31-.19-1-.44-.7-.26-1.43-.56-.73-.31-1.21-.66-.71-.49-1.02-1.1-.3-.62-.3-1.24 0-1.27 1.07-2.16 1.07-.89 2.69-.89 1 0 1.89.4.88.38 1.5 1.12zm9.59 0 .13.14-1.03 1.4-.16-.06q-.1-.02-.19-.12-.08-.1-.08-.24l-.01-.06q-.74-1.03-2.14-1.03-.87 0-1.36.41-.49.4-.49.98 0 .86 1.05 1.44.36.2 1.12.48.76.28 1.44.61.7.33 1.17.75.99.88.99 2.17 0 .47-.14.94-.13.46-.45.91t-.79.8q-.46.34-1.16.55-.7.2-1.55.2-1.14 0-2.13-.38-.98-.4-1.69-1.17l-.1-.13.96-1.69.2.11q.22.12.22.4v.04q.4.5 1.07.84.67.35 1.5.35.56 0 1-.16.46-.16.72-.42.28-.27.42-.57.14-.31.14-.63 0-.83-.85-1.33-.3-.19-1-.44-.7-.26-1.43-.56-.72-.31-1.2-.66-.72-.49-1.02-1.1-.3-.62-.3-1.24 0-1.27 1.06-2.16 1.07-.89 2.7-.89 1 0 1.88.4.88.38 1.5 1.12z"/></svg>
